<?xml version="1.0" standalone="no"?>
<!DOCTYPE svg PUBLIC "-//W3C//DTD SVG 1.1//EN" "http://www.w3.org/Graphics/SVG/1.1/DTD/svg11.dtd" >
<svg xmlns="http://www.w3.org/2000/svg">
<metadata>
This is a custom SVG font generated by IcoMoon.
<iconset grid="16"></iconset>
</metadata>
<defs>
<font id="icomoon" horiz-adv-x="512" >
<font-face units-per-em="512" ascent="480" descent="-32" />
<missing-glyph horiz-adv-x="512" />
<glyph class="hidden" unicode="&#xf000;" d="M0,480L 512 -32L0 -32 z" horiz-adv-x="0" />
<glyph unicode="&#xe023;" d="M 470.016,398.128c-49.76,45.664-130.432,45.664-180.224,0L 256,367.088l-33.792,31.024c-49.76,45.664-130.448,45.664-180.208,0
		c-56-51.392-56-134.704,0-186.080L 256,15.632l 214,196.416C 526,263.424, 526,346.736, 470.016,398.128z"  />
<glyph unicode="&#xe024;" d="M 256,480C 114.832,480,0,365.136,0,224c0-141.168, 114.832-256, 256-256c 141.152,0, 256,114.832, 256,256C 512,365.136, 397.152,480, 256,480z M 474.336,224
	c0-49.936-16.96-96-45.232-132.848c-8,6.288-16.496,23.152-8.496,40.656c 8.048,17.6, 10.176,58.336, 8.336,74.192
	c-1.776,15.824-10,54.032-32.368,54.384c-22.336,0.336-37.664,7.712-50.96,34.224c-27.552,55.136, 51.728,65.728, 24.176,96.288
	c-7.712,8.56-47.568-35.312-53.392,23.168C 316,418.208, 320,424.448, 325.344,430.96C 411.84,401.888, 474.336,320.144, 474.336,224z M 226,440.176
	c-5.232-10.176-19.008-14.304-27.392-21.952c-18.224-16.496-26.048-14.224-35.888-30.048c-9.888-15.84-41.776-38.672-41.776-50.112
	c0-11.44, 16.112-24.976, 24.16-22.336c 8.048,2.656, 29.28,2.496, 41.776-1.888c 12.496-4.416, 104.384-8.832, 75.104-86.512
	c-9.28-24.688-49.952-20.512-60.768-61.44c-1.616-5.984-7.232-31.616-7.616-40c-0.672-12.96, 9.168-61.808-3.328-61.808
	c-12.544,0-46.336,43.696-46.336,51.616c0,7.92-8.784,35.696-8.784,59.472c0,23.776-40.432,23.408-40.432,55.008
	c0,28.544, 21.936,42.704, 16.992,56.368c-4.832,13.584-43.392,14.080-59.456,15.712C 80.336,375.088, 146.384,429.168, 226,440.176z M 187.328,16.816
	c 13.104,6.912, 14.432,15.84, 26.336,16.336c 13.616,0.624, 24.672,5.312, 40,8.672c 13.616,2.992, 37.952,16.784, 59.392,18.56
	c 18.048,1.472, 53.712-0.96, 63.328-18.384c-34.544-22.944-75.952-36.336-120.384-36.336C 232,5.664, 208.944,9.616, 187.328,16.816z"  />
<glyph unicode="&#xe001;" d="M 510.944,243.6C 501.408,369.936, 401.968,469.376, 275.6,478.944L 275.6,480 l-39.168,0 l0-1.056 
		C 110.080,469.376, 10.64,369.952, 1.088,243.6L0,243.6 l0-39.184 l 1.056,0 c 9.552-126.336, 108.992-225.808, 235.344-235.36L 236.4-32 l 39.184,0 l0,1.040 
		c 126.336,9.552, 225.808,108.992, 235.344,235.36L 512,204.4 l0,39.184 L 510.944,243.584 z M 275.6,243.6L 275.6,325.328 l 68.096,0 c 8.336-25.904, 13.408-53.328, 15.024-81.728L 275.6,243.6 
		z M 275.6,363.92L 275.6,432.64 c 16.096-11.264, 36-34.56, 52.56-68.72L 275.6,363.92 z M 370.752,363.92c-9.568,22.864-21.024,43.52-33.904,60.992
		c 32.432-13.136, 61.536-34.112, 84.336-60.992L 370.752,363.92 z M 275.6,122.688l0,81.712 l 83.024,0 c-1.776-28.032-7.28-55.456-16.336-81.712L 275.6,122.688 z
		 M 325.808,84.064c-16.256-32.064-35.024-54.912-50.224-66.992l0,66.992 L 325.808,84.064 z M 421.184,84.064c-23.68-27.904-54.032-49.376-87.936-62.384
		c 13.536,17.92, 25.904,39.312, 35.968,62.384L 421.184,84.064 z M 471.664,204.4c-2.528-28.992-10.656-56.4-24.096-81.712l-64.192,0 
		c 8.032,26.592, 12.912,54, 14.496,81.712L 471.664,204.4 z M 471.664,243.6l-73.712,0 c-1.504,27.856-6.096,55.264-13.68,81.728l 63.312,0 
		C 460.992,300, 469.088,272.56, 471.664,243.6z M 128.672,122.688L 64.464,122.688 c-13.456,25.312-21.552,52.72-24.112,81.712l 73.792,0 
		C 115.744,176.688, 120.608,149.28, 128.672,122.688z M 183.872,363.92c 16.56,34.176, 36.448,57.456, 52.544,68.72l0-68.72 L 183.872,363.92 z M 236.416,325.328l0-81.728 
		L 153.312,243.6 c 1.632,28.384, 6.688,55.808, 15.024,81.728L 236.416,325.328 z M 90.832,363.92c 22.832,26.864, 51.888,47.84, 84.368,60.992
		C 162.32,407.44, 150.832,386.784, 141.28,363.92L 90.832,363.92 z M 40.352,243.6c 2.56,28.96, 10.656,56.4, 24.112,81.728l 63.312,0 
		c-7.616-26.464-12.208-53.872-13.664-81.728L 40.352,243.6 z M 236.416,204.4l0-81.712 l-66.672,0 c-9.056,26.24-14.56,53.664-16.336,81.712L 236.416,204.4 z
		 M 236.416,84.064l0-66.992 c-15.152,12.080-33.952,34.96-50.224,66.992L 236.416,84.064 z M 142.8,84.064c 10.080-23.072, 22.432-44.448, 35.984-62.384
		c-33.936,13.008-64.272,34.48-87.936,62.384L 142.8,84.064 z"  />
<glyph unicode="&#xe002;" d="M0,42.128l 206.576-29.904L 206.576,209.872 L0,209.872 L0,42.128 z M0,238.096l 206.576,0 L 206.576,435.76 L0,405.856L0,238.096 z M 234.816,8.128L 512-32
			L 512,209.872 L 234.816,209.872 L 234.816,8.128 z M 234.816,439.872l0-201.744 L 512,238.128 L 512,480 L 234.816,439.872z"  />
<glyph unicode="&#xe003;" d="M0,91.232L 256,356.768L 512,91.232 	z"  />
<glyph unicode="&#xe004;" d="M 511.936,164.64c-0.032,0.384-3.104,1.84-3.44,2.128c-0.288,0.272, 0.88,4.992, 1.296,8.688
		c 0.4,3.664, 0.464,7.584, 0.592,7.952c 0.16,0.368, 0.896,1.056, 1.28,1.328c 0.336,0.384, 0.288,1.216, 0.256,2.752
		c-0.064,1.584-2.272,13.616-2.528,14.656c-0.256,0.992-0.912,3.232-1.136,4.208c-0.224,0.944-1.44,2.448-1.52,2.624
		c-0.064,0.176-0.192,2.176-0.192,3.152s-2.16,8.192-3.28,9.68c-1.216,1.504-6.16,5.472-15.344,11.2
		c-9.216,5.728-49.248,19.664-49.248,19.664c-1.632,0.544-7.696,2.128-11.216,3.152c-3.536,0.96-19.248,3.44-20.192,3.664
		c-0.944,0.272-2.128,1.472-2.432,1.744c-0.336,0.256-3.056-1.248-4.464-1.008c-1.44,0.256-26.16,10.896-31.248,13.392
		c-4.992,2.464-37.904,16.816-56.8,24.112c-18.896,7.296-44.24,13.44-68.272,16.496c-24.048,3.024-54.608,2.336-67.264,1.328
		c-12.672-0.96-44.912-5.92-56.48-8.64C 108.752,304.192, 75.2,294.88, 66.768,292.432c-8.416-2.496-37.056-11.632-37.744-11.904
		C 28.32,280.256, 24.080,278.88, 24.080,278.88S 19.040,277.264, 19.040,276.88c0-0.336, 1.888-7.536, 1.952-8.672
		c 0.048-1.088-2.656-10.864-2.688-11.12C 18.256,256.816, 17.104,256.656, 16.544,256c-0.608-0.608-2.88-10.080-3.040-11.232
		c-0.192-1.184, 0.992-2.096, 1.232-2.24c 0.256-0.128, 0.192-1.168-0.176-3.376c-0.336-2.256-2.48-16.848-2.544-17.232
		c-0.048-0.384-5.76-8.048-6.496-9.024c-0.688-0.992-3.088-2.608-3.936-3.584c-0.816-0.992-1.392-7.664-1.52-14.224
		c-0.112-6.528, 0.256-11.44, 0.992-12.592c 0.752-1.184-0.176-3.2-0.32-4.096c-0.112-0.992, 1.088-1.936, 1.088-1.936s0,0, 0.336-1.152
		c 0.288-1.152, 1.472-1.024, 6.736-2.752c 5.28-1.776, 9.776-8.336, 10.528-8.816c 0.784-0.368, 29.392-2.336, 29.872-2.336
		c 0.464,0, 1.232,1.152, 1.232,1.152s 2.24,0, 4.832-0.032c 5.264-17.84, 21.616-30.944, 41.104-30.944c 16.8,0, 31.2,9.696, 38.272,23.696
		c 3.28-0.192, 6.576-0.352, 6.736-0.336c 0.336,0.112, 1.936-0.352, 2.4-0.576c 0.464-0.176, 82.416,0.096, 82.416,0.096l 93.712-0.56
		c0,0, 46.208-0.128, 46.96-0.128c 0.656,0, 4.112,0.32, 8.752,0.688c 7.248-13.552, 21.36-22.928, 37.808-22.928
		c 16.384,0, 30.352,9.248, 37.696,22.624c 7.904-0.032, 26.496,0.912, 30.656,1.088c 4.848,0.192, 22.992,1.744, 23.904,1.904
		s 2.096,2.32, 2.224,2.592c 0.032,0.288, 3.328,1.728, 3.68,2.256C 512.032,162.672, 511.936,164.256, 511.936,164.64z"  />
<glyph unicode="&#xe005;" d="M 341.792,431.28c 8.192,0, 16.336,0, 24.624,0c 0.656-0.176, 1.312-0.496, 2-0.608
				c 22.656-3.344, 42.4-12.688, 58.768-28.848c 2.352-2.336, 4.864-2.928, 8.16-2.176c 19.968,4.608, 38.928,11.712, 56.832,21.824
				c 1.152,0.672, 2.592,2.176, 3.792,1.232c 1.28-1.088-0.064-2.672-0.56-3.888c-6.816-17.808-17.312-32.992-32.352-44.88
				c-2.592-2.080-5.168-4.112-8.656-6.816c 1.872,0, 2.656-0.128, 3.488,0c 15.456,2.4, 30.448,6.336, 44.928,12.176
				c 2.688,1.072, 5.168,2.512, 8.032,2.72c0-0.288,0-0.576,0-0.848c-13.12-18.816-28.432-35.568-46.688-49.472
				c-3.808-2.928-5.152-6.064-5.024-10.736c 0.432-16.896-0.544-33.632-3.264-50.32c-10.208-62.896-36.384-118.064-80.080-164.576
				c-44.16-46.848-98.336-74.88-161.712-85.504c-10.336-1.712-20.752-2.368-31.088-3.84c-13.904,0-27.728,0-41.664,0
				c-4.16,0.464-8.352,1.040-12.56,1.488c-36.544,3.92-71.104,14.416-103.76,31.344c-8.032,4.176-15.872,8.656-23.776,13.008
				c0,0.592,0,1.152,0,1.712c 14.192-2.064, 28.496-2.096, 42.72-0.848C 82.864,66.72, 117.984,80, 149.584,102.848
				c 1.136,0.816, 2.88,1.328, 3.088,3.6c-4.464,0.624-8.976,1.088-13.36,1.904c-38.016,7.712-64.336,29.68-79.296,65.376
				c-2.336,5.632-1.952,6.192, 3.872,5.44c 11.056-1.52, 22.048-1.152, 32.992,0.816c 1.376,0.256, 3.008,0.256, 4.336,1.936
				c-1.696,0.528-3.008,1.008-4.336,1.408c-18.112,5.248-33.712,14.624-46.592,28.336c-18.272,19.472-28.096,42.496-28.944,69.296
				c-0.080,3.584, 0.784,4.672, 4.32,2.848c 8.272-4.208, 16.912-7.264, 25.968-9.040c 4.528-0.848, 9.008-1.856, 15.008-1.344
				c-6.416,4.736-11.376,9.392-16.192,14.336C 20.112,318.672, 13.12,371.824, 34.56,409.232c 1.44,2.528, 2.688,3.072, 4.56,0.56
				C 39.616,409.12, 40.24,408.464, 40.784,407.84c 25.648-30.304, 56.24-54.496, 91.52-72.656c 35.968-18.512, 74.288-28.784, 114.592-31.856
				c 3.504-0.32, 4.56,0.72, 3.936,4.224c-1.904,10.224-2.336,20.496-0.992,30.832c 5.28,39.168, 25.888,67.12, 61.44,84.176
				C 320.928,427.216, 331.296,429.28, 341.792,431.28z"  />
<glyph unicode="&#xe006;" d="M 512,243.696L 275.68,243.696L 275.68,480L 236.304,480L 236.304,243.696L0,243.696L0,204.32L 236.304,204.32L 236.304-32L 275.68-32L 275.68,204.32L 512,204.32 z"  />
<glyph unicode="&#xe007;" d="M 500.768,195.44c-0.432,0-0.528,8.464-1.248,11.632c-0.752,3.12-3.744,8.624-3.744,9.152
		c0,0.528, 2.688,0.256-4.224,6.272c-6.88,6.064-38.016,11.216-65.088,14.784c-27.056,3.568-56.848,4.992-56.848,4.992
		c-2.848,0.128-6.944,1.872-8.032,2.16c-1.152,0.288-2.192-0.288-3.008-0.336c-0.848-0.096-3.568,1.936-5.024,3.44
		c-1.488,1.472-29.776,23.312-44.176,32.016c-14.416,8.72-14.96,8.224-35.104,11.904c-0.928,0.16-1.872,0.32-2.88,0.432
		c-2.56,5.568-10.64,22.272-14.768,22.56c-4.96,0.32-71.28,1.904-74.736,0c-2.912-1.6-9.696-15.968-12.288-22.768
		c-11.424-0.992-23.344-2.784-30.896-6.288c-16.064-7.312-45.232-35.808-45.664-36.672c-0.448-0.848-62.88-4.816-69.68-6.432
		c-6.832-1.68-7.344-6.32-8.368-10.944c-1.056-4.624-1.44-23.312-1.664-25.648c-0.24-2.352-6.080-3.568-9.296-6
		c-3.216-2.448-3.008-6.784-3.008-7.344c0-0.48-0.992-0.064-0.992-0.064l0-6.448 c0,0, 1.776-2.368, 1.776-3.664
		c0-1.344-0.416-0.592, 0.528-3.056c 5.008-10.832, 22.656-11.888, 34.72-13.264C 49.136,164.4, 83.936,164.8, 88.592,164.8
		c0-9.664, 12.112-30.592, 34.896-30.592c 29.904,0, 39.072,22.080, 39.072,30.832c 2.272,0, 1.92-0.352, 1.92-0.352s 58.336-1.344, 100.56-2.224
		c 42.208-0.928, 105.216-0.032, 110.752-0.032c0-6.080, 9.968-29.776, 38.24-29.776c 28.24,0, 34.672,29.584, 34.672,29.584s 3.808-0.256, 8.752-0.688
		c 4.336-2.448, 29.088-1.664, 30.528-1.664c 1.408,0, 11.84,1.472, 15.152,3.408s 8.592,19.312, 8.848,22.464
		C 512.272,188.88, 501.232,195.44, 500.768,195.44z"  />
<glyph unicode="&#xe008;" d="M 511.968,206.288c-0.064,1.072-3.712,4.624-3.712,4.624s-0.272,2.128-2.224,10.336
		c-1.936,8.208-4.4,13.12-5.664,16.64c-1.264,3.504-3.568,5.984-7.024,8.976c-9.68,8.272-95.36,15.328-95.36,15.328
		s-0.032,1.104-1.408,2.768c-1.36,1.664-5.248,0.336-5.968,0.4c-0.688,0.080-5.216,3.808-6.896,4.496
		c-1.664,0.704-3.392-0.976-3.392-0.976s-3.504,2.080-14.912,10.528c-12.112,8.976-46.336,28.432-47.584,29.2
		c-1.216,0.752-2.704-0.288-4.304,3.856c-1.584,4.16-4.672,5.248-5.12,5.328c-0.384,0.064-0.128-4.224-0.128-4.224
		s-3.184-0.048-3.648,0c-0.512,0.080-0.864-1.008-1.376-1.168c-0.56-0.128-11.536,1.728-20.112,2
		c-8.544,0.272-28.72,0.992-29.2,0.992c-0.464,0-4.624,3.312-6.912,4.064c-2.288,0.768-47.632,1.936-56.832,2
		c-9.184,0.064-90.288-0.704-100.096-1.104C 80.32,319.936, 64.576,319.040, 62.72,318.64c-1.872-0.416-7.328-5.792-7.328-5.792
		s-2.096-0.16-5.264-0.512c-3.168-0.32-8.976-1.232-10.688-1.44c-1.712-0.224-4.224-2.88-4.832-3.936
		c-0.624-1.024, 2.832-2.080, 2.832-2.080s-10.304-11.952-15.184-20.304c-4.912-8.336-11.264-25.072-11.264-25.072s-2.576-17.824-2.704-27.408
		c-0.128-9.6, 1.664-16.224, 1.6-16.64s-9.792-3.808-9.792-3.808s-0.224-10.224,0-17.408c 0.208-7.168, 9.728-16.944, 11.328-18.032
		c 1.584-1.072, 10.128-2, 13.456-2c 3.312,0, 14.304-2.56, 19.472-3.248c 5.168-0.688, 23.056-3.376, 23.056-3.376L 68.16,167.52
		c-0.016-0.288-0.096-0.56-0.096-0.88c0-22.16, 17.952-40.096, 40.096-40.096c 19.136,0, 35.056,13.408, 39.072,31.312
		c 0.976,0.128, 1.84,0.256, 2.080,0.32c 0.832,0.24, 2.56,1.616, 4.288,3.12c 1.728,1.504, 3.664,1.632, 3.664,1.632
		s 0.4-0.384, 3.936-2.24c 3.52-1.888, 41.376-1.664, 41.376-1.664l 83.568-0.672c0,0, 73.76,0.528, 81.232,1.28
		c 7.424,0.784, 9.872,1.328, 12.624,2.784c 2.64-2.544, 9.056-5.136, 9.056-5.136l 1.216,0.288c 4.128-17.76, 19.936-30.976, 38.96-30.976
		c 21.504,0, 38.896,16.944, 39.936,38.208c 1.008-0.064, 1.696-0.096, 1.792-0.096c 0.752-0.048, 5.552-1.808, 5.552-1.808l0-5.568 
		c0,0, 9.52-0.112, 13.728,0c 4.24,0.032, 9.12,0.816, 10.752,2.528c 1.696,1.744, 0.496,3.744, 0.432,4.656
		c-0.064,0.88-0.624,1.216, 0.64,2.272c 1.248,1.008, 2.832,3.184, 4.272,4.784s 0.464,2.688, 0.064,3.776
		c-0.4,1.072, 0.832,3.408, 1.36,5.312c 0.56,1.92, 0.992,3.792, 1.888,4.72C 510.576,186.24, 512,188.432, 512,188.432
		S 512.032,205.152, 511.968,206.288z"  />
<glyph unicode="&#xe009;" d="M 256.048,467.472L 319.344,285.376L 512,281.472L 358.4,165.008L 414.288-19.472L 256.048,90.624L 97.808-19.472L 153.632,165.008L0,281.472L 192.736,285.376 	z"  />
<glyph unicode="&#xe00a;" d="M 420.56,197.088l-13.12-8.88l0-129.712 L 26.24,58.496 L 26.24,347.008 l 168.752,0 c 17.936,5.968, 62.4,23.584, 84.672,26.24L0,373.248 l0-340.992 l 433.68,0 L 433.68,206.032 
					L 420.56,197.088zM 87.808,127.568L 87.808,127.6L 87.808,127.6 			zM 443.504,345.488l-31.776,21.632l-71.504,48.624l0-48.624 l0-11.008 c-8.432-0.448-16.592-1.184-24.464-2.128
				c-22.256-2.656-42.256-7.152-60.192-13.088c-157.44-52.32-157.888-216.656-157.888-219.424c0,0.464, 54.336,114.992, 242.56,124.56l0-63.808 l 77.056,52.336
				l 13.088,8.912l 13.12,8.928L 512,298.912L 443.504,345.488z"  />
<glyph unicode="&#xe00b;" d="M 499.424,40.848l-122.448,122.496c-1.376,1.44-2.976,2.496-4.464,3.68c 20.64,31.744, 32.784,69.568, 32.784,110.288
		c0,111.904-90.672,202.608-202.624,202.608c-111.888,0-202.576-90.688-202.576-202.608s 90.688-202.576, 202.576-202.576
		c 40.704,0, 78.592,12.112, 110.368,32.768c 1.12-1.504, 2.192-3.008, 3.648-4.464l 122.4-122.448c 8.4-8.336, 19.344-12.496, 30.128-12.496
		c 10.944,0, 21.872,4.176, 30.224,12.496C 516.080-2.768, 516.080,24.224, 499.424,40.848z M 202.672,138.72c-76.432,0-138.624,62.192-138.624,138.592
		c0,76.432, 62.176,138.624, 138.624,138.624c 76.4,0, 138.624-62.176, 138.624-138.624C 341.28,200.912, 279.056,138.72, 202.672,138.72z"  />
<glyph unicode="&#xe01b;" d="M 141.136-32.016c-7.28,0.048-14.576,2.896-20.080,8.48c-11.072,11.184-10.944,29.232, 0.272,40.288L 330.4,223.040
			L 124.736,431.552C 113.664,442.736, 113.744,460.752, 124.992,471.808c 11.168,11.040, 29.216,10.928, 40.272-0.272l 225.696-228.752
			c 11.040-11.2, 10.912-29.264-0.32-40.288L 161.312-23.776C 155.728-29.328, 148.416-32.048, 141.136-32.016z"  />
<glyph unicode="&#xe013;" d="M 141.536,480l 249.088-249.072c 2-2, 3.12-4.72, 3.12-7.552s-1.12-5.536-3.12-7.536L 142.784-32L 119.44-32 
			l 255.392,255.376L 118.256,479.936L 141.536,480z"  />
<glyph unicode="&#xe012;" d="M 512,279.664L 311.664,279.664L 311.664,480L 200.336,480L 200.336,279.664L0,279.664L0,168.336L 200.336,168.336L 200.336-32L 311.664-32L 311.664,168.336L 512,168.336 	z"  />
<glyph unicode="&#xe011;" d="M 496.848,178.752c 2.4,0.496, 4.592,1.552, 0.832,4.528c-5.248,3.968-21.312,18.784-42.336,20.336
		c-21.12,1.52-31.632-1.76-31.632-1.76l-7.936,7.664c0,0, 7.072,12.16, 8.16,13.856c 1.408,2.096, 3.296,3.392, 6.848,3.264
		c 3.568-0.096, 10.976,4.048, 14.064,9.024c 3.088,4.96, 1.984,22.208-0.4,26.352c-2.368,4.144-19.2,19.104-19.072,20.064
		c 0.096,0.944, 0.448,6.64, 0.096,7.344c-0.384,0.72-4.88,6.208-8.336,8.96c-3.44,2.704-76.656,74.384-76.656,74.384
		s-2.336-6.24-2.96-8.832c-0.576-2.608, 10.048-21.808, 13.12-28.080c 2.032-4.080, 12.816-21.84, 19.728-27.824
		c-0.656-8.4-0.912-14.144-0.944-14.928c-0.128-2.24-9.152-9.648-9.152-9.648l-17.12-6.032l-6.48,6.624L 336.672,287.68 l 0.448,0.24
		l 0.144,2.96l-2.512,0.24l-0.592,7.232c0,0-12.88,0.848-13.936,0.112c-1.088-0.688-1.904-3.68-1.904-3.68l-0.592,0 
		c0,0-1.184,6.752-4.752,6.624c-3.568-0.128-8.352-2.112-8.16-4.96c 0.256-2.848-0.608-5.328-1.056-5.936
		c-0.496-0.592-1.664-4.608-1.664-4.608l-16.080-6.864c0,0-0.976-3.312-0.256-4.496c 0.72-1.184, 4.384-1.184, 7.216-0.24
		c 2.816,0.96, 11.344,4.016, 11.344,4.016s-0.384-2.672, 0.064-4.048c 0.752-2.272, 6.72-8.928, 13.344-0.080
		c 0.848,1.136, 3.008,4.72, 4.688,4.992c 1.712,0.224, 2.656,2.24, 4.928,0.592c 2.192-1.664, 9.136-9.2, 7.648-10.16
		c-1.552-0.944-9.312-0.864-16.304-3.968c-6.96-3.088-16.72-7.28-19.312-8.816c-2.64-1.536-10.272-4.048-15.552-7.232
		c-5.344-3.216-7.776-3.68-18.784-8c-11.056-4.336-27.984-10.848-31.68-12.496c-3.664-1.664-19.616-1.872-22.352-1.872
		c-2.656,0-7.776,0.976-10,2.144c0,0, 0.752,6.464-4.496,11.168c-5.232,4.704-20.48,16.384-22.976,16.384
		c-2.496,0-6.736,2.416-9.936,0.4c-3.184-2-17.152-11.184-18.464-11.648c-1.312-0.48-3.056-2.976-8.064-1.424
		c-4.96,1.552-26.064,5.168-27.44,7.312c-1.44,2.096-6.416,13.664-6.416,13.664s 11.728,2.736, 11.104,9.248
		C 113.696,280.96, 115.2,283.92, 109.28,288.656s-15.584,11.344-21.008,17.024c-5.424,5.68-8.288,18.512-13.008,21.088
		C 70.544,329.392, 67.696,329.36, 66.352,327.216c-1.28-2.128-3.616-5.456-4.192-6.192c-0.592-0.704-1.328-2.688,0-6.928
		c-2.144-1.92-4.496-4.784-4.496-4.784s-5.088-6.96-6.528-9.552c-1.408-2.624-2.96-5.456-4.592-6.88
		c-0.752-0.656-3.232-1.216-6.368-2.048c-3.488-0.896-34.88,8.544-37.632,2.656c-2.256-4.816, 22.24-8.912, 20.432-10.064
		c-5.28-3.36-9.904-7.12-11.584-9.216c-6.864-8.576-10.544-25.088-10.544-25.088s-1.44-8.624,0-15.312c 1.6-7.536, 6.224-13.232, 7.472-13.44
		c 2.352-0.336, 17.024-0.336, 17.728-0.336c 0.736,0, 19.184-1.104, 19.184-1.104l-0.144-5.040c0,0-2.272-2.048-3.504-2.288
		c-1.344-0.224-5.6-0.688-7.248-2c-1.648-1.28-0.848-6.976-1.776-8.992c-0.944-2-18-30.288-17.888-33.216
		c 0.128-3.024, 9.488-15.776, 9.936-17.536c 0.48-1.776-3.888-4.992-3.76-6.176s-4-2.208-4.464-3.28
		c-0.48-1.040, 1.776-13.664, 5.68-15.040c 3.92-1.472, 16.656-4.16, 19.936-4.464c 2.464-0.288, 14.336-0.224, 20.336-0.192
		c 7.248-25.648, 30.784-44.464, 58.784-44.464c 27.808,0, 51.216,18.592, 58.656,43.968c 3.472,0.368, 8.464,0.528, 8.464-0.784
		c0-2-2.88-5.568-0.768-6.688c 2.656-1.44, 7.888-6.624, 7.888-6.624s 8.624,8.656, 10.512,8.080c 1.92-0.592, 8.144-5.984, 10.656-6.144
		c 2.48-0.096, 18.544,0.336, 18.544,0.336s 119.328,2.272, 120.112,2.272c 0.88,0, 22.8,0.816, 23.616,3.648
		c 0.816,2.864-0.096,19.664, 0.656,20.384c 2,1.744, 4.128-4.304, 7.264-4.448c 3.872-30.992, 30.24-54.96, 62.272-54.96
		c 34.656,0, 62.784,28.16, 62.784,62.816C 511.792,153.648, 506.192,167.808, 496.848,178.752z M 121.184,102.128c-13.392,0-24.992,7.536-30.96,18.496
		l 8.192-0.064c 5.12-6.992, 13.424-11.488, 22.768-11.488c 9.136,0, 17.328,4.336, 22.48,11.136l 8.176-0.096
		C 145.824,109.376, 134.32,102.128, 121.184,102.128z M 449.984,99.008c-21.568,0-39.12,17.536-39.12,39.088c0,3.344, 0.432,6.528, 1.184,9.616
		c 3.28-0.336, 1.856-1.52, 2.032-3.008c 0.256-1.664, 4.656-10.56, 7.12-13.968c 0.288-0.384, 0.624-0.688, 0.928-0.816
		c 3.552-12.096, 14.64-20.832, 27.856-20.832c 16.064,0, 29.056,13.008, 29.056,29.008c0,12.912-8.432,23.904-20.16,27.664
		c 0.032,2.848, 0.16,4.944, 0.48,5.632c 0.704,1.344, 1.488,2.784, 2.688,3.872c 15.648-5.056, 26.96-19.808, 26.96-37.152
		C 489.008,116.56, 471.552,99.008, 449.984,99.008z"  />
<glyph unicode="&#xe010;" d="M0,279.664L 512,279.664L 512,168.352L0,168.352z"  />
<glyph unicode="&#xe00f;" d="M0,360.528L 512,360.528L 512,315.024L0,315.024zM0,246.752L 512,246.752L 512,201.248L0,201.248zM0,132.992L 512,132.992L 512,87.472L0,87.472z"  />
<glyph unicode="&#xe00e;" d="M 253.008,203.296L 493.184,392.608c-2.72,0.336-5.84,0.528-9.472,0.528L 33.264,393.136 c-4.672,0-8.656-0.368-12.112-0.992
			L 253.008,203.296zM 511.968,109.728L 511.968,110.24 l0,43.024 l0,38.72 l0,9.152 l0,54.848 l0,26.432 l0,0.992 L 511.968,294.72 L 511.968,325.472 L 511.968,343.92 L 511.968,365.696 L 511.68,365.696 
			c-0.368,4.992-0.336,9.664-1.136,13.68l-167.728-133.536l 169.152-160.72l0,6.624 L 511.968,109.728 zM 165.328,248.224L 2.784,379.92C 0.464,374.928, 0.032,368.96, 0.032,362.784l0-267.952 L 165.328,248.224zM 326.256,232.704l-71.536-56.912l-73.968,59.936L 1.152,67.36c 2.288-8, 9.248-12.496, 30.432-12.496L 493.12,54.864 
			c 6.976,1.024, 11.312,3.088, 14.112,5.904L 326.256,232.704z"  />
<glyph unicode="&#xe00d;" d="M 511.36,200.080c-0.56,2.816-1.968,11.632-6.256,20.848c-4.288,9.392-16.32,17.664-36,22.448
		c-10.528,2.624-35.776,7.12-66.976,10.704c-15.6,1.792-25.792,2.752-32.752,2.576c-14.912,9.392-57.248,31.696-70.256,36
		c-10.064,3.36-35.296,10.064-74.064,9.504c-39.264-0.576-80.688-5.92-111.312-13.312c-24.528-5.888-59.328-18.592-75.52-24.352
		c-10.848-3.264-25.008-8.72-25.008-8.72s-2.864,0.576-4.080-1.28c-1.312-1.76, 0.304-3.312, 0.56-6.304
		c 0.352-4.032-0.352-9.664-0.416-12.368c-0.144-6.608-1.408-13.776-1.408-13.776s-4.976-0.992-7.392-3.76
		c-0.576-0.608, 0.784-14.48, 0.784-14.48s-0.384-2.896-0.384-3.648c 0.016-1.536, 4.336-12.080, 10.448-18.016
		c 2.208-0.592, 8.064,0.32, 8.384,0c 0.832-0.88, 18.688-7.776, 35.968-8.816c 0.672-0.064, 5.68,1.904, 6.528,1.824
		c 0.816-0.032, 1.808-0.096, 2.816-0.128c 5.104-16.784, 22.72-29.216, 43.856-29.216c 19.552,0, 36.048,10.656, 42.512,25.52
		c 2.512-0.112, 4.368-0.208, 5.376-0.24c 0.576-0.064,0-3.312,0-3.312s 210.368,0, 217.84,0c 1.472,0, 0.496,3.744, 0.992,3.808
		c 1.728,0.032, 4.112,0.096, 6.752,0.16c 6.288-15.104, 22.928-25.936, 42.672-25.936c 19.664,0, 36.288,10.784, 42.656,25.808
		c 2.528-0.032, 4.576-0.032, 5.216-0.032c 0.336,0.032, 0.464-4.256, 0.848-4.256c 18.752,0.848, 20.032,2.096, 24.688,3.104
		c 4.848,1.056, 11.248,10.064, 12.336,15.312C 511.168,187.28, 512.112,196.336, 511.36,200.080z"  />
<glyph unicode="&#xe00c;" d="M 67.024,259.744l0-41.024 c0-14.032-6.752-22.336-27.088-22.336c-20.368,0-27.2,8.304-27.2,22.336l0,28.848 
					C 12.464,254.384, 6.864,259.904,0,259.904l0-7.968 c 2.496,0, 4.464-1.936, 4.704-4.368l0-31.632 c0-16.272, 12.752-27.84, 35.232-27.84
					c 22.432,0, 35.12,11.584, 35.12,27.84l0,43.808 L 67.024,259.744 zM 300.528,197.568l0,19.216 c0,2.624, 2.224,4.816, 4.816,4.864l 35.024,0 l0,8.096 l-35.152,0 
					c-1.68-0.048-3.28-0.384-4.72-1.008l0,23.152 l 57.152,0 l0,8.032 l-65.28,0 l0-70.4 L 360,189.52 l0,8.064 L 300.528,197.584 zM 507.056,197.056c-1.936-1.568-4.688-1.248-6.368,0.544l-15.408,19.552c 11.504,0.336, 20.72,9.776, 20.72,21.344
			c0,11.84-9.6,21.408-21.408,21.408l-52.128,0 l0-70.4 l 8.064,0 l 0.064,22.944c 0.096,2.56, 2.288,4.688, 4.88,4.688l 29.664,0 l 19.248-24.464
			c 4.432-5.248, 12.224-6.096, 17.632-1.84L 507.056,197.056z M 445.376,224.656c-1.68,0-3.312-0.352-4.784-0.976l-0.064,28.624l 44.096,0.016
			c 7.68,0, 13.84-6.176, 13.84-13.824c0-7.68-6.192-13.872-13.84-13.872L 445.376,224.656zM 211.424,225.904c 4.544,3.44, 7.504,8.88, 7.504,15.056c0,10.432-8.464,18.944-18.944,18.944L 147.328,259.904 l0-70.4 l 52.496,0 
			c 11.072,0, 20.032,8.992, 20.032,20.096C 219.872,216.32, 216.544,222.256, 211.424,225.904z M 155.376,252.336l 44.656-0.048
			c 6.272,0, 11.312-5.056, 11.312-11.344c0-6.224-5.040-11.296-11.312-11.296L 159.616,229.648 c-1.488-0.096-2.944-0.448-4.24-0.992L 155.376,252.336 z
			 M 199.84,197.056l-44.448,0.032l0,19.984 c 0.032,2.672, 2.24,4.928, 4.896,4.928l 39.584,0 c 6.896,0, 12.448-5.584, 12.448-12.416
			C 212.304,202.656, 206.72,197.056, 199.84,197.056z"  />
<glyph unicode="&#xe000;" d="M 370.448-32.048L 121.36,217.008C 119.36,219.008, 118.24,221.728, 118.24,224.56s 1.12,5.536, 3.12,7.536l 247.856,247.84
			l 23.344,0 L 137.168,224.56l 256.592-256.544L 370.448-32.048z"  />
<glyph unicode="&#xe015;" d="M 413.040,480L 98.944,480 C 44.368,480,0,435.632,0,381.056l0-104.512 l0-209.616 C0,12.368, 44.368-32, 98.944-32l 314.112,0 
	C 467.616-32, 512,12.368, 512,66.944L 512,276.544 L 512,381.056 C 512,435.632, 467.616,480, 413.040,480z M 441.44,420.992l 11.312,0.048L 452.752,409.76 l0-75.52 l-86.496-0.288
	l-0.288,86.784L 441.44,420.992z M 182.944,276.544c 16.368,22.704, 42.992,37.584, 73.056,37.584s 56.688-14.88, 73.056-37.584
	c 10.672-14.816, 17.056-32.928, 17.056-52.544c0-49.68-40.448-90.096-90.128-90.096c-49.68,0-90.128,40.4-90.128,90.096
	C 165.872,243.632, 172.256,261.728, 182.944,276.544z M 462.112,66.944c0-27.056-22-49.056-49.056-49.056L 98.944,17.888 
	c-27.040,0-49.056,22-49.056,49.056L 49.888,276.544 l 76.432,0 C 119.712,260.32, 116,242.592, 116,224c0-77.184, 62.8-140, 140-140s 140,62.816, 140,140
	c0,18.592-3.728,36.32-10.336,52.544l 76.432,0 L 462.096,66.944 z"  />
<glyph unicode="&#xe016;" d="M 512.336,355.136L 432.336,355.136L 432.336,435.168L 400.336,435.168L 400.336,355.136L 320.336,355.136L 320.336,323.136L 400.336,323.136L 400.336,243.168L 400.336,243.168L 400.336,243.136L 416.336,243.136L 416.336,243.168L 432.336,243.168L 432.336,323.136L 512.336,323.136 		
			zM 276.912,435.136c0,0-99.664,0-132.896,0c-59.584,0-115.648-41.76-115.648-94.032c0-53.408, 40.624-94.848, 101.216-94.848
			c 4.224,0, 8.32,0.928, 12.32,1.216c-3.936-7.552-6.736-15.616-6.736-24.4c0-14.848, 7.984-26.672, 18.080-36.496
			c-7.632,0-15.008-0.112-23.024-0.112c-73.76,0-130.56-46.944-130.56-95.664c0-47.984, 62.272-77.984, 136.032-77.984
			c 84.144,0, 130.592,47.712, 130.592,95.712c0,38.48-11.376,61.568-46.448,86.368c-12.048,8.48-35.008,29.152-35.008,41.328
			c0,14.24, 4.080,21.264, 25.52,38c 21.968,17.152, 37.536,40.688, 37.536,68.768c0,33.424-14.912,76.128-42.848,76.128l 42.144,0 L 276.912,435.136z
			 M 230.48,116.832c 1.024-4.432, 1.632-9.008, 1.632-13.68c0-38.784-24.992-69.072-96.688-69.072c-51.008,0-87.824,32.304-87.824,71.056
			c0,38, 45.664,69.648, 96.688,69.088c 11.888-0.144, 23.008-2.064, 33.040-5.312C 204.992,149.664, 224.88,138.768, 230.48,116.832z M 148.832,261.488
			c-34.256,1.024-66.784,38.32-72.688,83.248c-5.888,44.976, 17.040,79.36, 51.264,78.336c 34.256-1.024, 66.784-37.088, 72.704-82.048
			C 205.984,296.064, 183.024,260.464, 148.832,261.488z"  />
<glyph unicode="&#xe018;" d="M 46.096-32c 1.936,0.224, 3.856,0.512, 5.664,1.056c 3.648,1.152, 7.088,3.072, 10,5.584l 300.192,167.696
			l-69.872,69.664L 46.096-32zM 360.816,314.816L 58.656,479.776L 58.24,480L 292.192,246.688 		zM 25.632,477.792C 19.504,472.672, 15.68,464.976, 15.68,456.384l0-460.672 c0-6.56, 2.256-12.592, 5.952-17.344L 274.72,229.344
			L 25.632,477.792zM 488.784,244.944c-1.84,1.472-4,2.624-6.32,3.424l-99.12,54.096l-73.744-73.12l 74.752-74.592l 100.528,56.192
			l 2.224,1.248c 5.536,3.6, 9.216,9.872, 9.216,17.008C 496.288,235.568, 493.408,241.2, 488.784,244.944z"  />
<glyph unicode="&#xe019;" d="M 190.032,371.904c 0.784,12.592, 1.904,25.2, 4.992,37.536c 9.312,37.488, 33.616,59.184, 70.992,66.96
				C 278.528,479.024, 291.312,480, 304.096,479.936c 21.936,0, 43.84-0.048, 65.776,0.112c 3.2,0, 4.096-0.784, 4.096-4.032
				c-0.208-26.208-0.064-52.416-0.128-78.624c0-0.432, 0.128-0.928, 0.208-1.408c 0.576-3.68-0.992-4.544-4.608-4.496
				c-13.792,0.256-27.568,0.192-41.312,0.112C 321.872,391.504, 315.696,390.976, 309.76,388.8c-7.008-2.416-11.376-7.216-12.992-14.48
				c-0.944-4.24-1.344-8.432-1.344-12.704c-0.032-15.376,0-30.72-0.224-46.096c-0.032-2.992, 0.992-3.328, 3.536-3.328
				c 23.712,0.080, 47.296,0.080, 71.056,0.080c 4.688,0, 4.592,0, 4.128-4.656c-1.36-12.496-2.528-24.992-3.84-37.424
				c-1.504-14.352-3.056-28.688-4.4-43.072c-0.288-2.768-1.504-3.216-4-3.216c-20.784,0.064-41.664-0.048-62.448,0.16
				c-3.376,0.016-4-0.96-4-4.096c 0.16-82.448, 0.16-164.848, 0.128-247.296c0-5.728, 0.208-4.592-4.688-4.592
				c-32.064-0.032-64.192,0.080-96.192-0.128c-3.648,0-4.4,0.96-4.368,4.416c 0.112,82.272, 0.112,164.512, 0.112,246.88
				c0,4.976, 1.072,4.704-4.624,4.704c-14.8,0-29.568,0.112-44.24-0.048c-2.816-0.048-3.504,0.752-3.472,3.44
				c 0.096,27.184, 0.096,54.352-0.032,81.536c0,2.832, 0.88,3.472, 3.552,3.456c 15.008-0.080, 29.952,0.016, 44.976-0.080
				c 2.848,0, 3.936,0.416, 3.904,3.68C 190.032,334.56, 190.064,353.216, 190.032,371.904z"  />
<glyph unicode="&#xe01a;" d="M 512,356.768L 256,91.232L0,356.768 	z"  />
<glyph unicode="&#x20;" d="M 368.528,106.816c-5.2,4.624-13.184,4.192-17.808-1.024l-82.096-92.048L 268.624,467.376 C 268.624,474.352, 262.96,480, 256,480
		s-12.624-5.648-12.624-12.624l0-453.648 l-82.096,92.048c-4.64,5.216-12.624,5.664-17.808,1.024c-5.2-4.656-5.664-12.624-1.008-17.824
		l 104.128-116.768c 0.16-0.16, 0.336-0.256, 0.48-0.4c 0.192-0.208, 0.336-0.4, 0.528-0.592c 0.208-0.192, 0.4-0.304, 0.608-0.464
		c 0.272-0.224, 0.544-0.4, 0.832-0.624c 0.432-0.288, 0.88-0.512, 1.344-0.752c 0.288-0.128, 0.56-0.304, 0.864-0.4
		c 0.512-0.224, 1.040-0.368, 1.616-0.496c 0.24-0.080, 0.464-0.176, 0.736-0.224C 254.4-31.904, 255.216-32, 256.016-32l0,0l0,0
		c 0.816,0, 1.632,0.096, 2.416,0.256c 0.272,0.048, 0.496,0.144, 0.752,0.224c 0.544,0.128, 1.072,0.288, 1.6,0.496
		c 0.304,0.112, 0.576,0.288, 0.864,0.4c 0.464,0.24, 0.912,0.496, 1.328,0.752c 0.304,0.208, 0.576,0.4, 0.848,0.624
		c 0.208,0.176, 0.4,0.288, 0.608,0.464c 0.224,0.16, 0.336,0.384, 0.528,0.592c 0.16,0.16, 0.336,0.256, 0.48,0.4l 104.128,116.768
		C 374.192,94.192, 373.712,102.16, 368.528,106.816z"  />
<glyph unicode="&#xe01c;" d="M 512,39.024L 327.024,224L 512,408.96L 440.976,480L 256,295.024L 71.024,480L0,408.96L 184.976,224L0,39.024L 71.024-32L 256,152.96L 440.976-32 	
		z"  />
<glyph unicode="&#xe01d;" d="M 182.128,27.216L 13.184,196.16c-17.584,17.6-17.584,46.080,0,63.664s 46.096,17.584, 63.68,0l 105.248-105.232L 435.12,407.6
		c 17.6,17.584, 46.112,17.584, 63.68,0s 17.584-46.096,0-63.68L 182.128,27.216z"  />
<glyph unicode="&#xe01e;" d="M 384,458.672L 128,458.672 c-70.336,0-128-57.584-128-128l0-85.328 c0-70.384, 57.664-128, 128-128l 21.36,0 l0-128 l 146.272,128L 384,117.344 c 70.432,0, 128,57.632, 128,128L 512,330.672 
		C 512,401.072, 454.432,458.672, 384,458.672z"  />
<glyph unicode="&#xe01f;" d="M 110.672,404.976L 42.704,404.384L 27.488,330.544l-3.2-14.832l 0.176,0 l-0.176-0.704l 70.144,0 
			c 64.144,0, 71.056,35.472, 71.056,50.736C 165.488,377.52, 160.128,404.976, 110.672,404.976z M 24.992,315.568l 0.048,0.16l 12.272,0 L 24.992,315.568zM 291.92,404.976l-67.984-0.576l-15.2-73.888l-3.184-14.8l 0.176,0 l-0.176-0.704l 70.080,0 
			c 64.176,0, 71.072,35.472, 71.072,50.736C 346.704,377.52, 341.36,404.976, 291.92,404.976z M 206.256,315.568l 0.032,0.16l 12.304,0 L 206.256,315.568zM 86.384,271.744l-67.952-0.544L 3.2,197.28L0,182.464l 0.16,0 L0,181.744l 70.112,0 c 64.16,0, 71.088,35.504, 71.088,50.784
			C 141.2,244.336, 135.856,271.744, 86.384,271.744z M 0.704,182.32l 0.048,0.16l 12.304,0 L 0.704,182.32zM 267.664,271.744l-67.968-0.544l-15.248-73.904l-3.184-14.864l 0.144,0 l-0.144-0.72l 70.128,0 
			c 64.144,0, 71.056,35.504, 71.056,50.784C 322.416,244.336, 317.072,271.744, 267.664,271.744z M 181.92,182.32l 0.032,0.16l 12.304,0 L 181.92,182.32zM 457.232,325.824l-67.984-0.56l-15.248-73.904l-3.184-14.832l 0.144,0 l-0.144-0.72l 70.112,0 
			c 64.176,0, 71.072,35.488, 71.072,50.752C 512,298.352, 506.672,325.824, 457.232,325.824z M 371.52,236.352l 0.048,0.16l 12.288,0 L 371.52,236.352zM 431.104,187.008l-67.984-0.56l-15.216-73.888l-3.2-14.816l 0.16,0 l-0.16-0.736l 70.112,0 
			c 64.144,0, 71.056,35.52, 71.056,50.768C 485.872,159.6, 480.528,187.008, 431.104,187.008z M 345.408,97.6l 0.032,0.176l 12.32,0 L 345.408,97.6zM 241.632,133.072l-67.984-0.544l-15.216-73.936l-3.184-14.832l 0.144,0 l-0.144-0.736l 70.112,0 
			c 64.128,0, 71.056,35.472, 71.056,50.736C 296.384,105.6, 291.040,133.072, 241.632,133.072z M 155.904,43.616l 0.048,0.16l 12.288,0 L 155.904,43.616z"  />
<glyph unicode="&#xe020;" d="M 509.872,214.176c-1.344,2.128-6.528,3.6-9.184,4.8c 0.752,2.928-1.664,11.472-3.472,15.216
		c-1.904,3.744-2.336,4.272-15.664,8.672c-13.344,4.4-47.744,8.8-79.152,10.272c-31.408,1.472-33.248,1.472-35.312,2.496
		c-11.872,7.904-64.32,34.848-64.32,34.848c-6.4,3.312-14.4,6.576-76.64,6.832c-62.208,0.272-85.696-5.456-99.712-10.656
		c-13.904-5.168-30.368-26.912-30.656-27.312c-2.464-0.096-8.512-0.384-22.896-1.136c-33.792-1.712-49.008-6.144-55.152-10.816
		c-6.128-4.672-6.256-25.504-6.256-25.504s-6.576-2-8.544-3.344c-2-1.328-1.872-4.528-2.528-9.728
		c-0.688-5.232,0-10.832,0-11.76s 2.656-6.016, 5.6-7.344c 2.96-1.328, 67.696-7.696, 69.568-8c 1.872-0.288-0.672-0.944, 9.2-2.16
		c 0.56-0.064, 1.984-0.128, 3.968-0.192c 2.736-16.288, 16.816-28.672, 33.856-28.672c 16.752,0, 30.672,11.968, 33.76,27.808
		c 79.216-0.688, 197.168-1.184, 209.616-1.184c 4.592,0, 12.064,0.096, 20.848,0.224c 3.504-15.328, 17.152-26.832, 33.536-26.832
		c 16.912,0, 30.88,12.128, 33.808,28.128c 2.368,0.256, 6.72,0.56, 12.72,0.752c 9.088,0.272, 38.72,7.648, 39.12,7.648
		c 0.368,0, 5.024,9.328, 5.68,12.288C 512.368,202.4, 511.248,212.032, 509.872,214.176z"  />
<glyph unicode="&#xe017;" d="M 277.632,435.456c 33.632,44.368, 80.368,44.56, 80.368,44.56s 7.008-41.664-26.432-81.872
			c-35.712-42.848-76.256-35.84-76.256-35.84S 247.632,396.032, 277.632,435.456zM 259.568,333.088c 17.328,0, 49.424,23.824, 91.216,23.824c 71.968,0, 100.336-51.264, 100.336-51.264s-55.408-28.256-55.408-96.96
			c0-77.536, 68.992-104.176, 68.992-104.176s-48.288-135.76-113.44-135.76c-29.872,0-53.088,20.192-84.624,20.192c-32.128,0-64-20.944-84.72-20.944
			c-59.552,0-134.64,128.736-134.64,232.224c0,101.824, 63.584,155.248, 123.232,155.248C 209.344,355.488, 239.424,333.088, 259.568,333.088z"  />
<glyph unicode="&#xe021;" d="M 370.72,225.2c0,63.44-51.44,114.88-114.88,114.88s-114.88-51.424-114.88-114.88c0-23.696, 7.184-45.712, 19.472-64.016l0,0
		c 8.272-16.16, 36.928-53.632, 36.928-65.184s0-13.664,0-16.080c0-2.4, 1.808-12.672, 14.192-12.672c 12.368,0, 44.24,0, 44.288,0l0,0
		c 0.032,0, 31.92,0, 44.288,0s 14.192,10.272, 14.192,12.672c0,2.416,0,4.512,0,16.080s 28.64,49.024, 36.912,65.184l0,0
		C 363.536,179.488, 370.72,201.504, 370.72,225.2z M 255.84,302.224c 13.424,0, 26.016-3.536, 36.944-9.696c-0.352,0-0.72,0.016-1.056,0.016
		c-54.336,0-98.352-44.032-98.352-98.352c0-3.344, 0.176-6.64, 0.496-9.888c-8.352,12.128-13.28,26.816-13.28,42.656
		C 180.576,268.512, 214.272,302.224, 255.84,302.224zM 302.976,47.168l-94.592,0 c-6.656,0-12.032-5.392-12.032-12.032l0-35.12 c0-6.64, 5.392-12.032, 12.032-12.032l 15.152,0 
		C 229.472-23.856, 241.68-32, 255.84-32c 14.128,0, 26.352,8.144, 32.288,19.984l 14.848,0 c 6.64,0, 12.032,5.392, 12.032,12.032l0,35.12 
		C 315.008,41.776, 309.616,47.168, 302.976,47.168zM 395.008,112.448c-7.408,7.456-19.472,7.488-26.944,0.064c-7.456-7.424-7.504-19.488-0.064-26.944l 41.872-42.112
		c 3.712-3.728, 8.608-5.616, 13.504-5.616c 4.864,0, 9.712,1.84, 13.44,5.552c 7.472,7.408, 7.504,19.488, 0.064,26.944L 395.008,112.448zM 492.8,243.632l-59.392,0.272c-0.032,0-0.064,0-0.080,0c-10.48,0-19.008-8.464-19.040-18.96
		c-0.064-10.528, 8.432-19.088, 18.976-19.136l 59.376-0.288c 0.032,0, 0.064,0, 0.096,0c 10.464,0, 19.008,8.464, 19.024,18.976
		C 511.808,235.008, 503.312,243.584, 492.8,243.632zM 256.24,382.512c 0.032,0, 0.064,0, 0.096,0c 10.48,0, 19.008,8.464, 19.040,18.96l 0.288,59.376C 275.696,471.376, 267.216,479.952, 256.688,480
		c-0.032,0-0.064,0-0.096,0c-10.48,0-19.008-8.464-19.040-18.96L 237.28,401.664C 237.232,391.136, 245.728,382.56, 256.24,382.512zM 381.632,332.32c 4.848,0, 9.68,1.84, 13.408,5.52l 42.192,41.792c 7.472,7.408, 7.536,19.472, 0.128,26.944s-19.472,7.536-26.944,0.128
		l-42.192-41.792c-7.472-7.408-7.536-19.472-0.128-26.944C 371.808,334.208, 376.72,332.32, 381.632,332.32zM 116.992,112.448l-41.872-42.112c-7.424-7.456-7.392-19.536, 0.064-26.944c 3.712-3.696, 8.576-5.552, 13.44-5.552
		c 4.896,0, 9.776,1.872, 13.504,5.616L 144,85.584c 7.424,7.456, 7.376,19.52-0.064,26.944C 136.48,119.936, 124.416,119.904, 116.992,112.448zM 97.728,224.944c-0.048,10.512-8.592,18.944-19.136,18.96L 19.2,243.632c-10.528-0.048-19.008-8.624-18.96-19.136
		c 0.048-10.496, 8.56-18.976, 19.040-18.976c 0.032,0, 0.064,0, 0.096,0l 59.376,0.288C 89.28,205.84, 97.776,214.4, 97.728,224.944zM 116.96,337.84C 120.672,334.16, 125.52,332.32, 130.368,332.32c 4.912,0, 9.808,1.888, 13.536,5.648C 151.312,345.44, 151.264,357.504, 143.776,364.912
		L 101.6,406.704C 94.128,414.112, 82.064,414.048, 74.656,406.576C 67.248,399.104, 67.312,387.040, 74.784,379.632L 116.96,337.84z"  />
<glyph unicode="&#xe022;" d="M 410.8,224c0-85.504-69.312-154.8-154.8-154.8c-85.504,0-154.8,69.296-154.8,154.8c0,10.192, 1.008,20.144, 2.896,29.76L0,253.76 L0,48 
	c0-44.192, 35.792-80, 80-80l 352,0 c 44.16,0, 80,35.808, 80,80L 512,253.76 l-104.112,0 C 409.776,244.144, 410.8,234.192, 410.8,224z M 432,480L 80,480 C 35.792,480,0,444.176,0,400
	l0-86.704 l 129.6,0 c 28.032,39.616, 74.192,65.504, 126.4,65.504c 52.208,0, 98.352-25.888, 126.384-65.504L 512,313.296 L 512,400 C 512,444.176, 476.16,480, 432,480z M 471.104,381.168
	c0-7.856-6.416-14.288-14.288-14.288l-42.88,0 c-7.84,0-14.304,6.416-14.304,14.288L 399.632,424.032 c0,7.872, 6.448,14.304, 14.304,14.304l 42.88,0 
	c 7.856,0, 14.288-6.416, 14.288-14.304L 471.104,381.168 z M 351.248,224c0,52.608-42.64,95.248-95.248,95.248S 160.752,276.608, 160.752,224
	s 42.64-95.248, 95.248-95.248S 351.248,171.392, 351.248,224z"  />
<glyph unicode="&#xe014;" d="M 469.328,204.384L 512,253.728l-52,39.376l 18.928,62.416l-63.52,14.832l-8.112,64.72l-64.064-12.288l-33.712,55.808L 256,441.328
		l-53.52,37.28l-33.728-55.808L 104.704,435.056L 96.592,370.352L 33.056,355.52l 18.928-62.416L0,253.728l 42.672-49.328l-31.472-57.12l 59.024-27.696
		l-5.52-64.992l 65.2-1.312l 21.392-61.616l 60.080,25.344L 256-30.592l 44.608,47.6l 60.112-25.344l 21.392,61.616l 65.2,1.312l-5.536,64.992
		l 59.040,27.696L 469.328,204.384z M 227.184,129.216l-96.16,97.136l 34.208,33.84l 61.824-62.464l 123.68,125.792l 34.32-33.728L 227.184,129.216z"  />
<glyph unicode="&#xe025;" d="M 359.776,299.008c-3.744,10.112, 100.672,103.376, 39.76,178.96c-14.272,17.68-62.608-84.624-131.28-130.944
	c-37.888-25.552-126.032-79.952-126.032-110l0-194.576 C 142.24,6.288, 282-32, 388.256-32c 38.912,0, 95.296,243.936, 95.296,282.672
	C 483.552,289.568, 363.536,288.912, 359.776,299.008z M 113.776,296.32c-18.704,0-85.328-11.376-85.328-88.784l0-137.904 c0-77.424, 66.624-85.952, 85.328-85.952
	s-28.432,16.288-28.432,64.288L 85.344,229.2 C 85.344,279.504, 132.48,296.32, 113.776,296.32z"  />
<glyph unicode="&#xe026;" d="M 383.408,352.608C 383.408,422.976, 326.336,480, 256,480c-70.352,0-127.392-57.024-127.392-127.392c0-61.664, 43.76-113.008, 101.92-124.816l0-210.336 
	c-29.632-3.488-50.976-12.832-50.976-23.92c0-14.128, 34.208-25.536, 76.432-25.536s 76.448,11.408, 76.448,25.536c0,11.088-21.328,20.4-50.976,23.92
	L 281.456,227.792 C 339.648,239.584, 383.408,290.944, 383.408,352.608z M 217.76,352.608c-21.104,0-38.224,17.12-38.224,38.224c0,21.104, 17.12,38.224, 38.224,38.224
	s 38.224-17.12, 38.224-38.224C 255.984,369.728, 238.864,352.608, 217.76,352.608z"  />
<glyph unicode="&#xe027;" d="M 256,60.464L0,316.496L 71.056,387.536L 256,202.576L 440.976,387.536L 512,316.496 	z"  />
<glyph unicode="&#xe028;" d="M 256,387.536L 512,131.504L 440.944,60.464L 256,245.424L 71.024,60.464L0,131.504 	z"  />
<glyph unicode="&#xe029;" d="M 382.592,480L 385.408,477.184L 132.208,224L 385.408-29.184L 382.592-32L 126.592,224 	z"  />
<glyph unicode="&#xe02a;" d="M 129.408-32L 126.592-29.184L 379.792,224L 126.592,477.184L 129.408,480L 385.408,224 	z"  />
<glyph unicode="&#xe02b;" d="M 512,476.608L 508.592,480L 256,227.392L 3.392,480L0,476.608L 252.608,224L0-28.592L 3.392-32L 256,220.608L 508.592-32L 512-28.592L 259.392,224 z"  />
<glyph unicode="&#xe02c;" d="M 507.424,211.584c 0.32,0.368, 0.64,0.736, 0.928,1.12c 0.512,0.736, 0.96,1.52, 1.376,2.336
	c 0.192,0.368, 0.416,0.72, 0.592,1.104c 0.416,0.928, 0.704,1.904, 0.976,2.912c 0.096,0.304, 0.224,0.592, 0.288,0.896
	C 511.84,221.264, 512,222.624, 512,224.016s-0.16,2.752-0.432,4.064c-0.064,0.32-0.208,0.624-0.288,0.944
	c-0.272,0.992-0.56,1.952-0.976,2.864c-0.176,0.4-0.4,0.768-0.624,1.152c-0.4,0.784-0.832,1.568-1.344,2.272
	c-0.288,0.416-0.624,0.768-0.96,1.168c-0.528,0.64-1.072,1.248-1.68,1.824c-0.144,0.128-0.272,0.32-0.4,0.448L 398.88,331.36
	c-8.128,7.072-20.464,6.208-27.52-1.904c-7.072-8.128-6.224-20.464, 1.904-27.536l 67.088-58.4L 19.52,243.52 C 8.736,243.52,0,234.784,0,224.016
	c0-10.784, 8.736-19.52, 19.52-19.52l 420.848,0 l-67.088-58.4c-8.128-7.056-8.992-19.392-1.904-27.52c 3.856-4.432, 9.264-6.72, 14.72-6.72
	c 4.544,0, 9.104,1.6, 12.8,4.816l 106.416,92.624c 0.144,0.128, 0.256,0.304, 0.4,0.416C 506.336,210.304, 506.88,210.928, 507.424,211.584z"  />
<glyph unicode="&#xe02d;" d="M 503.568,18.256L 296,223.040L 500.192,430.048c 10.992,11.104, 10.928,28.992-0.256,39.968
	c-11.088,10.96-29.008,10.848-39.984-0.272L 256,263.024L 52.048,469.744C 41.072,480.864, 23.152,480.976, 12.064,470
	C 0.912,459.024, 0.832,441.152, 11.808,430.048L 216,223.040l-207.568-204.8c-11.136-10.992-11.264-28.88-0.272-39.984
	c 5.472-5.552, 12.704-8.368, 19.936-8.416c 7.232-0.032, 14.496,2.672, 20.032,8.176L 256,183.12l 207.872-205.104
	c 5.536-5.504, 12.8-8.208, 20.016-8.176c 7.232,0.048, 14.48,2.88, 19.952,8.416C 514.832-10.624, 514.704,7.264, 503.568,18.256z"  />
<glyph unicode="&#xe02e;" d="M 350.672-23.776L 121.344,202.496c-11.232,11.008-11.36,29.088-0.336,40.288L 346.72,471.536
			c 11.056,11.2, 29.104,11.312, 40.288,0.272c 11.248-11.056, 11.312-29.072, 0.256-40.256L 181.584,223.040l 209.072-206.288
			c 11.216-11.056, 11.344-29.088, 0.288-40.288c-5.52-5.6-12.816-8.432-20.096-8.48C 363.568-32.048, 356.256-29.328, 350.672-23.776z"  />
<glyph unicode="&#xe02f;" d="M 256,480C 114.624,480,0,365.376,0,224c0-141.392, 114.624-256, 256-256c 141.392,0, 256,114.608, 256,256C 512,365.376, 397.392,480, 256,480z M 232.192,378.784l 47.632,0 
		l0-74.608 l-10.336-127.808l-28.432,0 l-8.864,127.808L 232.192,378.784 z M 256,63.248c-23.392,0-42.368,18.976-42.368,42.384c0,23.408, 18.976,42.368, 42.368,42.368
		c 23.424,0, 42.368-18.976, 42.368-42.368C 298.368,82.224, 279.424,63.248, 256,63.248z"  />
<glyph unicode="&#xe030;" d="M 437.776,43.808C 483.648,90.080, 512,153.712, 512,224c0,141.392-114.608,256-256,256S0,365.392,0,224c0-70.288, 28.352-133.92, 74.224-180.192l0-0.864 
	l 0.8,0 C 121.344-3.36, 185.328-32, 256-32c 70.688,0, 134.672,28.64, 180.992,74.96l 0.8,0 L 437.792,43.808 z M 256,440.624c 119.456,0, 216.624-97.168, 216.624-216.624
	c0-48.416-16.176-93.024-43.136-129.152c-2.048,3.616-4.384,7.152-7.36,10.64c-4.064,4.768-9.36,8.32-15.92,10.672
	c-3.104,1.072-7.152,2.608-12.16,4.64c-4.976,2.048-10.576,4.336-16.816,6.896c-6.24,2.592-12.848,5.344-19.76,8.32
	s-13.776,5.92-20.56,8.896c-6.8,2.96-13.376,5.856-19.76,8.64c-6.384,2.832-12.096,5.312-17.056,7.504l0,27.36 
	c0,1.216, 0.384,3.2, 1.168,5.968c 0.784,2.688, 1.632,5.536, 2.576,8.528c 1.072,3.424, 2.256,7.072, 3.504,10.96
	c 4.512,8.416, 8.064,17.888, 10.64,28.416c 2.56,10.528, 3.856,21.616, 3.856,33.312c0,15.888-1.664,29.36-5.024,40.336
	c-3.36,10.992-7.952,19.872-13.792,26.672c-5.856,6.768-12.624,11.664-20.352,14.72c-7.696,3.040-15.92,4.544-24.656,4.544
	c-8.896,0-17.184-1.536-24.896-4.672c-7.712-3.104-14.464-8.112-20.224-14.976c-5.776-6.864-10.336-15.712-13.68-26.656
	c-3.36-10.896-5.024-24.208-5.024-39.968c0-12, 1.328-23.344, 3.968-34.016c 2.672-10.688, 6.256-20.224, 10.768-28.64
	c 1.232-3.6, 2.336-6.96, 3.264-10.032c 0.784-2.656, 1.52-5.28, 2.224-7.84c 0.704-2.576, 1.216-4.512, 1.536-5.728l0-26.672 
	c-4.848-2.16-10.432-4.64-16.848-7.488c-6.384-2.8-13.168-5.712-20.336-8.88c-7.152-3.104-14.368-6.24-21.616-9.328
	c-7.248-3.136-14.16-6.064-20.704-8.784c-6.544-2.704-12.464-5.136-17.76-7.248c-5.296-2.128-9.6-3.68-12.88-4.768
	c-6.384-2.352-11.6-5.904-15.664-10.672c-3.008-3.552-5.392-7.152-7.456-10.816C 55.616,130.816, 39.392,175.504, 39.392,224
	C 39.392,343.456, 136.56,440.624, 256,440.624z"  />
<glyph unicode="&#xe031;" d="M 275.312,249.232l0,0.8 c-0.16-0.272-0.336-0.528-0.512-0.8L 275.312,249.232 zM 474.144,481.632L 37.808,481.632 C 16.944,481.632,0,465.104,0,444.72l0-441.424 c0-20.368, 16.944-36.928, 37.808-36.928l 436.336,0 
		c 20.912,0, 37.856,16.544, 37.856,36.928L 512,444.72 C 512,465.104, 495.040,481.632, 474.144,481.632z M 155.168,50.32L 77.84,50.32 L 77.84,282.976 l 77.328,0 L 155.168,50.32 z
		 M 116.512,314.752L 116,314.752 c-25.936,0-42.72,17.856-42.72,40.192c0,22.816, 17.312,40.192, 43.744,40.192c 26.448,0, 42.736-17.376, 43.248-40.192
		C 160.288,332.608, 143.488,314.752, 116.512,314.752z M 434.032,50.32l-77.312,0 l0,124.48 c0,31.264-11.184,52.608-39.184,52.608
		c-21.36,0-34.080-14.384-39.68-28.304c-2.032-4.976-2.528-11.904-2.528-18.864l0-129.936 l-77.328,0 c0,0, 0.992,210.848,0,232.656l 77.328,0 l0-32.944 
		c 10.288,15.84, 28.656,38.416, 69.696,38.416c 50.88,0, 89.008-33.264, 89.008-104.736L 434.032,50.32 z"  />
<glyph unicode="&#xe032;" d="M 385.664,317.296c-58.272,0-84.336-32.048-98.944-54.528l0-1.136 l-0.736,0 c 0.256,0.368, 0.512,0.768, 0.736,1.136l0,46.736 
		l-109.744,0 c 1.424-30.96,0-330.192,0-330.192l 109.744,0 L 286.72,163.712 c0,9.872, 0.72,19.712, 3.6,26.768c 7.968,19.744, 26.016,40.176, 56.336,40.176
		c 39.728,0, 55.616-30.304, 55.616-74.672l0-176.672 L 512-20.688 L 512,168.656 C 512,270.080, 457.872,317.296, 385.664,317.296zM 6.48,309.504L 116.224,309.504L 116.224-20.688L 6.48-20.688zM 62.096,468.688C 24.576,468.688,0,444.032,0,411.664c0-31.68, 23.824-57.040, 60.64-57.040l 0.736,0 
		c 38.272,0, 62.112,25.36, 62.112,57.040C 122.752,444.032, 99.632,468.688, 62.096,468.688zM 286.736,261.632l0,1.136 c-0.224-0.368-0.48-0.768-0.736-1.136L 286.736,261.632 z"  />
</font>
</defs>
</svg>
